<svg width="44" height="44" viewBox="0 0 44 44" fill="none" xmlns="http://www.w3.org/2000/svg">
<circle cx="22" cy="22" r="22" fill="#F5F5F5"/>
<path fill-rule="evenodd" clip-rule="evenodd" d="M21.9999 14.3282L16.5624 19.7658L13.3983 16.6017L21.9999 8L30.6042 16.6045L27.4403 19.7686L21.9999 14.3282ZM14.3281 21.9997L11.1641 18.8357L8 21.9999L11.164 25.1639L14.3281 21.9997ZM21.9999 29.6716L16.5624 24.2342L13.3938 27.3939L13.3982 27.3983L21.9999 36L30.6042 27.3955L30.6059 27.3939L27.4402 24.2314L21.9999 29.6716ZM32.836 25.1643L36 22.0003L32.836 18.8363L29.6721 22.0003L32.836 25.1643ZM25.2104 21.9983H25.209L25.212 21.9998L25.2102 22.0015L21.9998 25.2122L18.7919 22.0043L18.7875 21.9998L18.7919 21.9954L19.3544 21.4329L19.6269 21.1604H19.6269L21.9998 18.7875L25.2104 21.9983Z" fill="#76808F"/>
<path d="M26.7791 7.51668V11.3837H28.5353C29.1059 11.3837 29.5325 10.9017 29.5325 10.2646C29.5325 9.62194 29.0505 9.38371 28.7735 9.36709V9.33385C29.0284 9.29507 29.3996 9.09008 29.3996 8.51391C29.3996 7.91003 29.0062 7.51668 28.3691 7.51668H26.7791ZM27.2444 9.18981V7.92665H28.3137C28.6793 7.92665 28.9009 8.12056 28.9009 8.46405V8.65241C28.9009 8.9959 28.6793 9.18981 28.3137 9.18981H27.2444ZM27.2444 10.9737V9.5887H28.3912C28.7901 9.5887 29.0339 9.79923 29.0339 10.187V10.3754C29.0339 10.7632 28.7901 10.9737 28.3912 10.9737H27.2444Z" fill="#76808F"/>
<path d="M31.7614 11.4502C32.4041 11.4502 32.875 11.1122 33.1188 10.5693L32.7476 10.3366C32.5925 10.7577 32.2545 11.0347 31.7614 11.0347C31.0966 11.0347 30.7033 10.5527 30.7033 9.76044V9.18427C30.7033 8.39202 31.0966 7.86571 31.7614 7.86571C32.2379 7.86571 32.5592 8.1261 32.7143 8.52499L33.0911 8.29784C32.8473 7.76044 32.4041 7.4502 31.7614 7.4502C30.7864 7.4502 30.2046 8.1815 30.2046 9.47236C30.2046 10.7632 30.7864 11.4502 31.7614 11.4502Z" fill="#76808F"/>
</svg>
