<svg width="44" height="44" viewBox="0 0 44 44" fill="none" xmlns="http://www.w3.org/2000/svg">
<circle cx="22" cy="22" r="22" fill="#0B0E11"/>
<path fill-rule="evenodd" clip-rule="evenodd" d="M21.9999 14.3282L16.5624 19.7658L13.3983 16.6017L21.9999 8L30.6042 16.6045L27.4403 19.7686L21.9999 14.3282ZM14.3281 21.9997L11.1641 18.8357L8 21.9999L11.164 25.1639L14.3281 21.9997ZM21.9999 29.6716L16.5624 24.2342L13.3938 27.3939L13.3982 27.3983L21.9999 36L30.6042 27.3955L30.6059 27.3939L27.4402 24.2314L21.9999 29.6716ZM32.836 25.1643L36 22.0003L32.836 18.8363L29.6721 22.0003L32.836 25.1643ZM25.2104 21.9983H25.209L25.2119 21.9998L25.2102 22.0015L21.9997 25.2122L18.7919 22.0043L18.7875 21.9998L18.7919 21.9954L19.3543 21.4329L19.6268 21.1603H19.6269L21.9997 18.7875L25.2104 21.9983Z" fill="#F0B90B"/>
<path d="M26.8264 7.51668V11.3837H28.5826C29.1533 11.3837 29.5799 10.9017 29.5799 10.2646C29.5799 9.62194 29.0979 9.38371 28.8209 9.36709V9.33385C29.0757 9.29507 29.4469 9.09008 29.4469 8.51391C29.4469 7.91003 29.0536 7.51668 28.4164 7.51668H26.8264ZM27.2918 9.18981V7.92665H28.361C28.7267 7.92665 28.9483 8.12056 28.9483 8.46405V8.65241C28.9483 8.9959 28.7267 9.18981 28.361 9.18981H27.2918ZM27.2918 10.9737V9.5887H28.4386C28.8375 9.5887 29.0813 9.79923 29.0813 10.187V10.3754C29.0813 10.7632 28.8375 10.9737 28.4386 10.9737H27.2918Z" fill="#F0B90B"/>
<path d="M31.5318 11.4502C32.3628 11.4502 32.8614 10.9959 32.8614 10.2868C32.8614 9.71058 32.5346 9.37817 31.7811 9.20643L31.4653 9.13441C30.9778 9.0236 30.7395 8.8574 30.7395 8.49175C30.7395 8.07623 31.0443 7.86017 31.5373 7.86017C31.9861 7.86017 32.2797 8.04299 32.4902 8.33662L32.8393 8.08177C32.5512 7.6718 32.1412 7.4502 31.5595 7.4502C30.8005 7.4502 30.2797 7.82139 30.2797 8.50837C30.2797 9.10116 30.6675 9.41141 31.3711 9.57208L31.6869 9.6441C32.1966 9.76044 32.4016 9.94327 32.4016 10.3089C32.4016 10.7521 32.1024 11.0402 31.5484 11.0402C31.0997 11.0402 30.7783 10.8463 30.5069 10.4862L30.1634 10.7743C30.4736 11.1953 30.9113 11.4502 31.5318 11.4502Z" fill="#F0B90B"/>
<path d="M35.0279 11.4502C35.6706 11.4502 36.1415 11.1122 36.3853 10.5693L36.0141 10.3366C35.859 10.7577 35.521 11.0347 35.0279 11.0347C34.3631 11.0347 33.9698 10.5527 33.9698 9.76044V9.18427C33.9698 8.39202 34.3631 7.86571 35.0279 7.86571C35.5044 7.86571 35.8257 8.1261 35.9808 8.52499L36.3576 8.29784C36.1138 7.76044 35.6706 7.4502 35.0279 7.4502C34.0529 7.4502 33.4712 8.1815 33.4712 9.47236C33.4712 10.7632 34.0529 11.4502 35.0279 11.4502Z" fill="#F0B90B"/>
</svg>
